<mxfile host="app.diagrams.net" modified="2021-05-11T14:51:34.686Z" agent="5.0 (Windows NT 10.0; Win64; x64) AppleWebKit/537.36 (KHTML, like Gecko) Chrome/90.0.4430.93 Safari/537.36" etag="lWaoNkKumh-aY9iHfFrN" version="14.6.11" type="github">
  <diagram id="U1B9trXg7gVxDaPWMwHs" name="Page-1">
    <mxGraphModel dx="460" dy="691" grid="0" gridSize="10" guides="1" tooltips="1" connect="1" arrows="1" fold="1" page="1" pageScale="1" pageWidth="827" pageHeight="1169" math="0" shadow="0">
      <root>
        <mxCell id="0" />
        <mxCell id="1" parent="0" />
        <mxCell id="Yz2ruNzg1fKOYCF-wAaS-2" value="&lt;font style=&quot;font-size: 22px&quot;&gt;Application Layer&lt;/font&gt;" style="rounded=0;whiteSpace=wrap;html=1;" vertex="1" parent="1">
          <mxGeometry x="170" y="210" width="170" height="100" as="geometry" />
        </mxCell>
        <mxCell id="Yz2ruNzg1fKOYCF-wAaS-3" value="&lt;font style=&quot;font-size: 22px&quot;&gt;Majority Voting System&lt;/font&gt;" style="rounded=0;whiteSpace=wrap;html=1;" vertex="1" parent="1">
          <mxGeometry x="170" y="370" width="170" height="100" as="geometry" />
        </mxCell>
        <mxCell id="Yz2ruNzg1fKOYCF-wAaS-4" value="&lt;font style=&quot;font-size: 22px&quot;&gt;Dynamic Routing&lt;/font&gt;" style="rounded=0;whiteSpace=wrap;html=1;" vertex="1" parent="1">
          <mxGeometry x="170" y="535" width="170" height="100" as="geometry" />
        </mxCell>
        <mxCell id="Yz2ruNzg1fKOYCF-wAaS-10" value="" style="endArrow=classic;startArrow=classic;html=1;entryX=0.5;entryY=1;entryDx=0;entryDy=0;exitX=0.5;exitY=0;exitDx=0;exitDy=0;" edge="1" parent="1" source="Yz2ruNzg1fKOYCF-wAaS-3" target="Yz2ruNzg1fKOYCF-wAaS-2">
          <mxGeometry width="50" height="50" relative="1" as="geometry">
            <mxPoint x="210" y="410" as="sourcePoint" />
            <mxPoint x="260" y="360" as="targetPoint" />
          </mxGeometry>
        </mxCell>
        <mxCell id="Yz2ruNzg1fKOYCF-wAaS-12" value="" style="endArrow=classic;startArrow=classic;html=1;exitX=0.5;exitY=0;exitDx=0;exitDy=0;entryX=0.5;entryY=1;entryDx=0;entryDy=0;" edge="1" parent="1" source="Yz2ruNzg1fKOYCF-wAaS-4" target="Yz2ruNzg1fKOYCF-wAaS-3">
          <mxGeometry width="50" height="50" relative="1" as="geometry">
            <mxPoint x="210" y="410" as="sourcePoint" />
            <mxPoint x="260" y="360" as="targetPoint" />
          </mxGeometry>
        </mxCell>
        <mxCell id="Yz2ruNzg1fKOYCF-wAaS-15" value="&lt;font style=&quot;font-size: 22px&quot;&gt;Network Layer&lt;/font&gt;" style="rounded=0;whiteSpace=wrap;html=1;" vertex="1" parent="1">
          <mxGeometry x="170" y="50" width="170" height="100" as="geometry" />
        </mxCell>
        <mxCell id="Yz2ruNzg1fKOYCF-wAaS-18" value="" style="endArrow=classic;startArrow=classic;html=1;fontFamily=Georgia;entryX=0.5;entryY=1;entryDx=0;entryDy=0;exitX=0.5;exitY=0;exitDx=0;exitDy=0;" edge="1" parent="1" source="Yz2ruNzg1fKOYCF-wAaS-2" target="Yz2ruNzg1fKOYCF-wAaS-15">
          <mxGeometry width="50" height="50" relative="1" as="geometry">
            <mxPoint x="230" y="210" as="sourcePoint" />
            <mxPoint x="280" y="160" as="targetPoint" />
          </mxGeometry>
        </mxCell>
      </root>
    </mxGraphModel>
  </diagram>
</mxfile>
